{
  "accessors": [
    {
      "bufferView": 2,
      "componentType": 5126,
      "count": 8295,
      "max": [
        13.832449913024902,
        3.6645710468292236,
        24.433910369873047
      ],
      "min": [
        -13.832449913024902,
        -12.799877166748047,
        2.9543089866638184
      ],
      "type": "VEC3"
    },
    {
      "bufferView": 2,
      "byteOffset": 99540,
      "componentType": 5126,
      "count": 8295,
      "max": [
        1,
        1,
        1
      ],
      "min": [
        -1,
        -1,
        -1
      ],
      "type": "VEC3"
    },
    {
      "bufferView": 3,
      "componentType": 5126,
      "count": 8295,
      "max": [
        0.99999845027923584,
        0.99999988079071045,
        0.99961978197097778,
        1
      ],
      "min": [
        -0.99999994039535522,
        -0.99999988079071045,
        -0.9996497631072998,
        -1
      ],
      "type": "VEC4"
    },
    {
      "bufferView": 1,
      "componentType": 5126,
      "count": 8295,
      "max": [
        0.99178200960159302,
        0.89764499664306641
      ],
      "min": [
        0.33492100238800049,
        0.021599000319838524
      ],
      "type": "VEC2"
    },
    {
      "bufferView": 0,
      "componentType": 5125,
      "count": 46485,
      "max": [
        8294
      ],
      "min": [
        0
      ],
      "type": "SCALAR"
    },
    {
      "bufferView": 2,
      "byteOffset": 199080,
      "componentType": 5126,
      "count": 1848,
      "max": [
        13.32679271697998,
        0.95476400852203369,
        29.760829925537109
      ],
      "min": [
        -13.32679271697998,
        -16.41840934753418,
        2.5268230438232422
      ],
      "type": "VEC3"
    },
    {
      "bufferView": 2,
      "byteOffset": 221256,
      "componentType": 5126,
      "count": 1848,
      "max": [
        0.99999600648880005,
        0.99999499320983887,
        1
      ],
      "min": [
        -0.99999600648880005,
        -0.99998748302459717,
        -0.99948090314865112
      ],
      "type": "VEC3"
    },
    {
      "bufferView": 3,
      "byteOffset": 132720,
      "componentType": 5126,
      "count": 1848,
      "max": [
        0.99997067451477051,
        0.99999696016311646,
        0.85926878452301025,
        1
      ],
      "min": [
        -0.99987697601318359,
        -0.99998438358306885,
        -0.99850976467132568,
        1
      ],
      "type": "VEC4"
    },
    {
      "bufferView": 1,
      "byteOffset": 66360,
      "componentType": 5126,
      "count": 1848,
      "max": [
        0.98123198747634888,
        0.98922300338745117
      ],
      "min": [
        0.040226999670267105,
        0.033750001341104507
      ],
      "type": "VEC2"
    },
    {
      "bufferView": 0,
      "byteOffset": 185940,
      "componentType": 5125,
      "count": 9804,
      "max": [
        1847
      ],
      "min": [
        0
      ],
      "type": "SCALAR"
    }
  ],
  "asset": {
    "extras": {
      "author": "Nico Caraballo - theniloart (https://sketchfab.com/theniloart)",
      "license": "CC-BY-4.0 (http://creativecommons.org/licenses/by/4.0/)",
      "source": "https://sketchfab.com/models/f1fdde319ed64170b13bf044b3739ead",
      "title": "Totoro"
    },
    "generator": "Sketchfab-4.28.3",
    "version": "2.0"
  },
  "bufferViews": [
    {
      "buffer": 0,
      "byteLength": 225156,
      "byteOffset": 0,
      "name": "floatBufferViews",
      "target": 34963
    },
    {
      "buffer": 0,
      "byteLength": 81144,
      "byteOffset": 225156,
      "byteStride": 8,
      "name": "floatBufferViews",
      "target": 34962
    },
    {
      "buffer": 0,
      "byteLength": 243432,
      "byteOffset": 306300,
      "byteStride": 12,
      "name": "floatBufferViews",
      "target": 34962
    },
    {
      "buffer": 0,
      "byteLength": 162288,
      "byteOffset": 549732,
      "byteStride": 16,
      "name": "floatBufferViews",
      "target": 34962
    }
  ],
  "buffers": [
    {
      "byteLength": 712020,
      "uri": "scene.bin"
    }
  ],
  "images": [
    {
      "uri": "textures/initialShadingGroup_baseColor.jpeg"
    }
  ],
  "materials": [
    {
      "doubleSided": true,
      "emissiveFactor": [
        0,
        0,
        0
      ],
      "name": "initialShadingGroup",
      "pbrMetallicRoughness": {
        "baseColorFactor": [
          1,
          1,
          1,
          1
        ],
        "baseColorTexture": {
          "index": 0,
          "texCoord": 0
        },
        "metallicFactor": 0,
        "roughnessFactor": 1
      }
    }
  ],
  "meshes": [
    {
      "primitives": [
        {
          "attributes": {
            "NORMAL": 1,
            "POSITION": 0,
            "TANGENT": 2,
            "TEXCOORD_0": 3
          },
          "indices": 4,
          "material": 0,
          "mode": 4
        }
      ]
    },
    {
      "primitives": [
        {
          "attributes": {
            "NORMAL": 6,
            "POSITION": 5,
            "TANGENT": 7,
            "TEXCOORD_0": 8
          },
          "indices": 9,
          "material": 0,
          "mode": 4
        }
      ]
    }
  ],
  "nodes": [
    {
      "children": [
        1
      ],
      "name": "RootNode (gltf orientation matrix)",
      "rotation": [
        -0.70710678118654746,
        -0,
        -0,
        0.70710678118654757
      ]
    },
    {
      "children": [
        2
      ],
      "name": "RootNode (model correction matrix)"
    },
    {
      "children": [
        3,
        4
      ],
      "name": "totoronico.obj.cleaner.materialmerger.gles"
    },
    {
      "mesh": 0,
      "name": ""
    },
    {
      "mesh": 1,
      "name": ""
    }
  ],
  "samplers": [
    {
      "magFilter": 9729,
      "minFilter": 9987,
      "wrapS": 10497,
      "wrapT": 10497
    }
  ],
  "scene": 0,
  "scenes": [
    {
      "name": "OSG_Scene",
      "nodes": [
        0
      ]
    }
  ],
  "textures": [
    {
      "sampler": 0,
      "source": 0
    }
  ]
}

